<svg aria-hidden="true" focusable="false" data-prefix="fad" role="img" xmlns="http://www.w3.org/2000/svg" viewBox="0 0 448 512"><g class="fa-group"><path fill="#0072ff" d="M207 285.54L12.7 91.14a23.9 23.9 0 0 1 0-33.9l22.7-22.7a24.08 24.08 0 0 1 33.9 0l154.7 154 154.7-154a23.9 23.9 0 0 1 33.9 0l22.7 22.7a23.9 23.9 0 0 1 0 33.9L241 285.54a24.2 24.2 0 0 1-34 0z"></path><path fill="#9ba2ab" d="M207 477.54L12.7 283.14a23.9 23.9 0 0 1 0-33.9l22.7-22.7a23.9 23.9 0 0 1 33.9 0l154.7 154 154.7-154a24.08 24.08 0 0 1 33.9 0l22.7 22.7a23.9 23.9 0 0 1 0 33.9L241 477.54a24.2 24.2 0 0 1-34 0z"></path></g></svg>